HIERARCHY
ROOT Hips
{
	OFFSET -0.001795 -0.223333 0.028219
	CHANNELS 6 Xposition Yposition Zposition Zrotation Yrotation Xrotation 
	JOINT LeftUpLeg
	{
		OFFSET 0.069520 -0.091406 -0.006815
		CHANNELS 3 Zrotation Yrotation Xrotation
		JOINT LeftLeg
		{
			OFFSET 0.034277 -0.375199 -0.004496
			CHANNELS 3 Zrotation Yrotation Xrotation
			JOINT LeftFoot
			{
				OFFSET -0.013596 -0.397961 -0.043693
				CHANNELS 3 Zrotation Yrotation Xrotation
				JOINT LeftToe
				{
					OFFSET 0.026358 -0.055791 0.119288
					CHANNELS 3 Zrotation Yrotation Xrotation
					End Site
					{
						OFFSET 0.000000 0.000000 0.000000
					}
				}
			}
		}
	}
	JOINT RightUpLeg
	{
		OFFSET -0.067670 -0.090522 -0.004320
		CHANNELS 3 Zrotation Yrotation Xrotation
		JOINT RightLeg
		{
			OFFSET -0.038290 -0.382569 -0.008850
			CHANNELS 3 Zrotation Yrotation Xrotation
			JOINT RightFoot
			{
				OFFSET 0.015774 -0.398415 -0.042312
				CHANNELS 3 Zrotation Yrotation Xrotation
				JOINT RightToe
				{
					OFFSET -0.025372 -0.048144 0.123348
					CHANNELS 3 Zrotation Yrotation Xrotation
					End Site
					{
						OFFSET 0.000000 0.000000 0.000000
					}
				}
			}
		}
	}
	JOINT Spine
	{
		OFFSET -0.002533 0.108963 -0.026696
		CHANNELS 3 Zrotation Yrotation Xrotation
		JOINT Spine1
		{
			OFFSET 0.005487 0.135180 0.001092
			CHANNELS 3 Zrotation Yrotation Xrotation
			JOINT Spine2
			{
				OFFSET 0.001457 0.052922 0.025425
				CHANNELS 3 Zrotation Yrotation Xrotation
				JOINT Neck
				{
					OFFSET -0.002778 0.213870 -0.042857
					CHANNELS 3 Zrotation Yrotation Xrotation
					JOINT Head
					{
						OFFSET 0.005152 0.064970 0.051349
						CHANNELS 3 Zrotation Yrotation Xrotation
						End Site
						{
							OFFSET 0.000000 0.000000 0.000000
						}
					}
				}
				JOINT LeftShoulder
				{
					OFFSET 0.078845 0.121749 -0.034090
					CHANNELS 3 Zrotation Yrotation Xrotation
					JOINT LeftArm
					{
						OFFSET 0.090977 0.030469 -0.008868
						CHANNELS 3 Zrotation Yrotation Xrotation
						JOINT LeftForeArm
						{
							OFFSET 0.259612 -0.012772 -0.027456
							CHANNELS 3 Zrotation Yrotation Xrotation
							JOINT LeftHand
							{
								OFFSET 0.249234 0.008986 -0.001171
								CHANNELS 3 Zrotation Yrotation Xrotation
								End Site
								{
									OFFSET 0.000000 0.000000 0.000000
								}
							}
						}
					}
				}
				JOINT RightShoulder
				{
					OFFSET -0.081759 0.118833 -0.038615
					CHANNELS 3 Zrotation Yrotation Xrotation
					JOINT RightArm
					{
						OFFSET -0.096012 0.032551 -0.009143
						CHANNELS 3 Zrotation Yrotation Xrotation
						JOINT RightForeArm
						{
							OFFSET -0.253742 -0.013329 -0.021401
							CHANNELS 3 Zrotation Yrotation Xrotation
							JOINT RightHand
							{
								OFFSET -0.255298 0.007772 -0.005559
								CHANNELS 3 Zrotation Yrotation Xrotation
								End Site
								{
									OFFSET 0.000000 0.000000 0.000000
								}
							}
						}
					}
				}
			}
		}
	}
}
MOTION
Frames: 18
Frame Time: 0.050000
0.000990 0.979099 -0.009456 -1.075719 3.891120 -0.519857 -0.882020 0.639795 6.725795 2.632199 0.092832 -6.583617 -0.596321 6.161148 18.012360 0.000000 0.000000 0.000000 4.525734 -1.034280 6.530480 -3.287039 0.011967 -5.184960 -3.249155 -11.622348 18.420244 0.000000 0.000000 0.000000 0.424852 -0.272088 5.903355 1.868536 0.412222 -29.880058 -2.067224 -1.060260 30.553678 1.830398 -0.365277 -13.469474 0.000000 0.000000 0.000000 14.493884 7.442454 -1.170600 -2.123626 -10.928302 -0.861096 -1.991320 -2.596350 0.113305 0.000000 0.000000 0.000000 -18.198960 -7.896013 -1.546439 5.584407 7.437868 -0.933566 2.164100 9.648744 0.404302 0.000000 0.000000 0.000000 
0.001039 0.979084 -0.010737 -1.058226 3.780312 -0.552877 -0.724351 0.649841 6.962228 2.381253 0.115213 -6.797942 -0.763468 5.773137 17.598052 0.000000 0.000000 0.000000 4.469226 -1.053187 6.691214 -3.261184 0.001527 -5.301483 -3.088557 -11.305535 17.935968 0.000000 0.000000 0.000000 0.394914 -0.251487 5.511782 1.869924 0.400468 -29.584630 -2.008689 -1.017830 30.770812 1.789827 -0.371853 -13.130457 0.000000 0.000000 0.000000 14.936869 7.399434 -1.138349 -2.292532 -11.085543 -0.881175 -1.997567 -2.242224 0.096041 0.000000 0.000000 0.000000 -18.673854 -7.751859 -1.494763 5.828655 7.683604 -0.956918 2.189502 9.232519 0.385569 0.000000 0.000000 0.000000 
0.001074 0.978913 -0.012016 -1.093943 3.708298 -0.542825 -0.578140 0.637999 6.949118 2.270617 0.118447 -6.761322 -0.914945 5.434127 17.256890 0.000000 0.000000 0.000000 4.389934 -1.038944 6.638079 -3.143489 -0.000194 -5.213010 -2.911509 -10.964810 17.571338 0.000000 0.000000 0.000000 0.410222 -0.248942 5.440082 1.893965 0.395348 -29.589671 -1.947080 -0.958968 30.887405 1.748557 -0.359720 -12.907227 0.000000 0.000000 0.000000 15.307111 7.357234 -1.103345 -2.335792 -11.143569 -0.887678 -2.168310 -2.160169 0.093716 0.000000 0.000000 0.000000 -18.836529 -7.757588 -1.498076 5.897476 7.938356 -0.968132 2.123275 8.984282 0.370278 0.000000 0.000000 0.000000 
0.001105 0.978690 -0.013289 -1.110301 3.504612 -0.658114 -0.467187 0.628085 6.913322 2.131538 0.114842 -6.560878 -0.917506 5.367150 17.155055 0.000000 0.000000 0.000000 4.285751 -1.042709 6.731575 -2.992044 -0.000215 -5.058432 -2.731344 -10.595384 16.959664 0.000000 0.000000 0.000000 0.433498 -0.246631 5.372836 1.901027 0.386133 -29.378765 -1.921662 -0.881746 30.945681 1.739871 -0.382768 -12.669208 0.000000 0.000000 0.000000 15.389378 7.413373 -1.127475 -2.317044 -11.116593 -0.886855 -2.135454 -2.285239 0.099543 0.000000 0.000000 0.000000 -18.979546 -7.808664 -1.494460 6.016858 8.205838 -0.982339 2.109567 8.731629 0.357529 0.000000 0.000000 0.000000 
0.001144 0.978212 -0.014481 -1.089342 3.369230 -0.739263 -0.444527 0.639539 7.049318 1.932567 0.120711 -6.488011 -0.728930 5.419545 16.511731 0.000000 0.000000 0.000000 4.255810 -1.043346 6.761545 -2.928512 -0.000404 -4.992175 -2.779331 -10.638709 16.586377 0.000000 0.000000 0.000000 0.437054 -0.249105 5.427659 1.842069 0.397153 -29.394654 -1.871367 -0.822789 30.887428 1.721317 -0.374995 -12.624472 0.000000 0.000000 0.000000 15.442165 7.336090 -1.111513 -2.425745 -11.023574 -0.888394 -1.944408 -2.363507 0.100988 0.000000 0.000000 0.000000 -19.007657 -7.610098 -1.449640 6.053487 8.082750 -0.983010 1.839669 8.776703 0.345189 0.000000 0.000000 0.000000 
0.001208 0.977749 -0.015615 -1.090640 3.238638 -0.771353 -0.379373 0.640761 7.106334 1.803287 0.124237 -6.431456 -0.701315 5.287290 16.032193 0.000000 0.000000 0.000000 4.137127 -1.048486 6.867280 -2.661969 -0.021430 -5.033054 -2.778258 -10.567065 16.033703 0.000000 0.000000 0.000000 0.481934 -0.242968 5.256148 1.851193 0.391533 -29.213442 -1.846653 -0.708690 30.914305 1.662191 -0.338482 -12.472982 0.000000 0.000000 0.000000 15.117560 7.336889 -1.144312 -2.336826 -10.830537 -0.875460 -1.404719 -2.979097 0.120504 0.000000 0.000000 0.000000 -18.898240 -7.767492 -1.499667 5.968924 8.277956 -0.983530 1.650332 8.768938 0.335262 0.000000 0.000000 0.000000 
0.001234 0.976765 -0.016670 -1.096087 3.427000 -0.809364 -0.301493 0.620842 6.970279 1.688908 0.114118 -6.081945 -0.714352 5.060824 15.313407 0.000000 0.000000 0.000000 4.077111 -1.021746 6.712946 -2.550741 -0.008397 -4.725976 -2.854479 -10.610354 15.661158 0.000000 0.000000 0.000000 0.549764 -0.248711 5.302182 1.775196 0.403778 -29.047568 -1.778685 -0.691710 30.864425 1.668906 -0.373698 -11.957552 0.000000 0.000000 0.000000 14.798254 7.183116 -1.116750 -2.025055 -11.033929 -0.867511 -1.205767 -2.919639 0.114054 0.000000 0.000000 0.000000 -18.716164 -7.879977 -1.575443 5.779218 8.196340 -0.975188 1.163273 8.667446 0.307584 0.000000 0.000000 0.000000 
0.001273 0.976090 -0.017632 -1.103785 3.329564 -0.800895 -0.248611 0.597806 6.737498 1.542732 0.104429 -5.692973 -0.557891 5.147048 14.890605 0.000000 0.000000 0.000000 3.994207 -0.972804 6.420908 -2.366185 -0.003648 -4.437968 -2.947478 -10.773188 15.574630 0.000000 0.000000 0.000000 0.714567 -0.252219 5.202154 1.622883 0.428839 -28.880736 -1.759273 -0.591159 30.930959 1.804211 -0.509821 -11.610685 0.000000 0.000000 0.000000 14.449069 6.883177 -1.084799 -1.862474 -10.413394 -0.825347 -1.102313 -3.700071 0.142619 0.000000 0.000000 0.000000 -18.468650 -8.042666 -1.643051 5.520338 8.174075 -0.961732 1.043861 8.669081 0.301386 0.000000 0.000000 0.000000 
0.001280 0.975281 -0.018368 -1.009092 3.188798 -0.813877 -0.317032 0.605590 6.748700 1.326143 0.114014 -5.640935 -0.281466 5.431040 14.520657 0.000000 0.000000 0.000000 3.963698 -0.948261 6.272354 -2.353051 -0.006920 -4.468217 -3.226005 -11.305338 15.724169 0.000000 0.000000 0.000000 0.827145 -0.269750 5.442164 1.366121 0.484286 -29.048153 -1.751473 -0.374219 30.788994 1.936518 -0.596694 -11.586671 0.000000 0.000000 0.000000 14.557203 6.384778 -0.944125 -2.168971 -10.067646 -0.827246 -0.713827 -3.819237 0.136742 0.000000 0.000000 0.000000 -18.378715 -7.825214 -1.632728 5.510772 7.944684 -0.959195 0.518303 8.616186 0.274000 0.000000 0.000000 0.000000 
0.001291 0.974522 -0.018989 -1.002837 3.174485 -0.713261 -0.224713 0.576877 6.492661 1.099802 0.122965 -5.552778 -0.159859 5.612670 14.509987 0.000000 0.000000 0.000000 3.909817 -0.917676 6.080376 -2.234491 -0.006496 -4.319444 -3.281503 -11.348938 15.360581 0.000000 0.000000 0.000000 0.878508 -0.273568 5.457585 1.304265 0.496594 -29.036390 -1.719184 -0.403615 30.584855 1.957619 -0.598201 -11.795539 0.000000 0.000000 0.000000 13.959220 6.151598 -0.942747 -2.088992 -9.438858 -0.789309 0.135330 -4.906550 0.143888 0.000000 0.000000 0.000000 -18.084843 -7.794150 -1.637751 5.109758 7.562777 -0.922297 0.122632 9.048805 0.265781 0.000000 0.000000 0.000000 
0.001315 0.973584 -0.019383 -0.970014 3.471429 -0.700331 -0.153636 0.559218 6.378884 1.058661 0.120019 -5.419958 -0.399341 5.164686 14.150203 0.000000 0.000000 0.000000 3.799299 -0.874576 5.827101 -2.171741 0.012164 -3.951698 -3.333179 -11.374001 15.205606 0.000000 0.000000 0.000000 0.803952 -0.279649 5.652232 1.467895 0.469628 -29.119877 -1.833500 -0.555971 30.561991 1.865830 -0.531620 -11.732989 0.000000 0.000000 0.000000 13.390486 6.051398 -0.959076 -1.751029 -9.379524 -0.760833 0.676900 -5.065601 0.126763 0.000000 0.000000 0.000000 -18.074721 -7.711128 -1.641871 4.948787 7.107437 -0.901953 -0.511557 9.264283 0.236536 0.000000 0.000000 0.000000 
0.001336 0.973219 -0.019684 -0.985689 3.374399 -0.555342 -0.168364 0.544990 6.188070 1.078893 0.116732 -5.366485 -0.313945 5.244773 14.031137 0.000000 0.000000 0.000000 3.858015 -0.844997 5.582443 -2.171283 0.017638 -3.852455 -3.433481 -11.544956 15.079924 0.000000 0.000000 0.000000 0.786353 -0.268689 5.447474 1.619232 0.436070 -29.021363 -1.842794 -0.492032 30.645342 1.927483 -0.561327 -11.934673 0.000000 0.000000 0.000000 12.839885 6.116288 -1.024233 -1.536941 -9.039789 -0.726798 1.070919 -5.929641 0.126657 0.000000 0.000000 0.000000 -17.858028 -7.677842 -1.654325 4.436234 6.793056 -0.851696 -0.590594 9.522307 0.236064 0.000000 0.000000 0.000000 
0.001358 0.973139 -0.019831 -0.959508 3.357455 -0.404222 -0.286676 0.552022 6.167806 1.155457 0.119529 -5.539655 -0.215502 5.344803 13.878038 0.000000 0.000000 0.000000 3.952208 -0.833711 5.449357 -2.219974 0.013397 -3.981800 -3.666681 -11.968733 15.156048 0.000000 0.000000 0.000000 0.786301 -0.266823 5.403078 1.627558 0.437645 -29.133753 -1.897817 -0.437587 30.735941 1.968072 -0.571458 -12.105650 0.000000 0.000000 0.000000 12.791711 6.158181 -1.038252 -1.604626 -8.836539 -0.722474 1.193624 -6.448152 0.129053 0.000000 0.000000 0.000000 -17.737240 -7.745961 -1.690660 4.226098 6.554018 -0.828580 -0.613555 9.518338 0.234393 0.000000 0.000000 0.000000 
0.001376 0.973228 -0.019988 -0.965526 3.432160 -0.198291 -0.208677 0.527779 5.955727 1.005753 0.129598 -5.582382 -0.217212 5.351757 13.880055 0.000000 0.000000 0.000000 3.951842 -0.782720 5.078710 -2.247423 0.018981 -3.926564 -3.701209 -12.070940 15.559291 0.000000 0.000000 0.000000 0.814141 -0.261609 5.256572 1.615633 0.440944 -29.136817 -1.923682 -0.528464 30.746828 2.008726 -0.584836 -12.381025 0.000000 0.000000 0.000000 12.463798 6.172017 -1.074757 -1.566440 -8.590286 -0.706804 1.340673 -6.682080 0.125042 0.000000 0.000000 0.000000 -17.358424 -7.854621 -1.728954 3.743188 6.449036 -0.782948 -0.701409 9.434070 0.225558 0.000000 0.000000 0.000000 
0.001414 0.973347 -0.020089 -0.967777 3.376770 -0.112688 -0.166766 0.513666 5.818918 0.899143 0.132966 -5.517678 -0.163865 5.438977 13.916128 0.000000 0.000000 0.000000 3.852856 -0.760096 4.959374 -2.177718 0.011987 -3.948866 -3.560001 -11.851321 15.702753 0.000000 0.000000 0.000000 0.792737 -0.263191 5.305273 1.666257 0.429599 -29.108743 -1.949512 -0.564758 30.573410 1.985781 -0.564421 -12.482675 0.000000 0.000000 0.000000 12.447225 6.288239 -1.107347 -1.603036 -8.508446 -0.704586 1.454691 -6.640188 0.119329 0.000000 0.000000 0.000000 -17.326129 -7.892564 -1.712536 3.741291 6.376287 -0.777584 -0.689266 9.398897 0.224903 0.000000 0.000000 0.000000 
0.001447 0.973443 -0.020177 -0.953405 3.361059 -0.004729 -0.131867 0.500765 5.693321 0.829445 0.137428 -5.532610 -0.207429 5.397467 14.005146 0.000000 0.000000 0.000000 3.860964 -0.746316 4.851811 -2.278807 0.022769 -3.896569 -3.455202 -11.652452 15.580513 0.000000 0.000000 0.000000 0.597340 -0.254470 5.338341 1.962562 0.371368 -29.119251 -1.930897 -0.700611 30.496402 1.798240 -0.438241 -12.490116 0.000000 0.000000 0.000000 12.142960 6.543813 -1.212188 -1.621926 -8.539385 -0.709111 1.653599 -6.600456 0.109885 0.000000 0.000000 0.000000 -17.449248 -7.742843 -1.642008 3.714121 6.173768 -0.765619 -0.807663 9.379969 0.215726 0.000000 0.000000 0.000000 
0.001466 0.973528 -0.020271 -0.983640 3.288192 -0.087641 -0.073405 0.501252 5.740260 0.824153 0.136252 -5.494728 -0.251672 5.351060 14.101997 0.000000 0.000000 0.000000 3.932628 -0.770021 4.991493 -2.405865 0.028163 -3.963459 -3.347485 -11.469595 15.545430 0.000000 0.000000 0.000000 0.424473 -0.248882 5.422313 2.242276 0.314506 -29.105705 -1.907039 -0.758665 30.546562 1.606367 -0.306331 -12.460408 0.000000 0.000000 0.000000 11.895317 6.779699 -1.309186 -1.589531 -8.626459 -0.712845 1.739029 -6.502394 0.105332 0.000000 0.000000 0.000000 -17.508393 -7.698955 -1.612096 3.699998 6.063223 -0.759935 -0.690054 9.483617 0.223228 0.000000 0.000000 0.000000 
0.001487 0.973708 -0.020372 -1.004489 3.064444 -0.227887 -0.107248 0.507872 5.770994 0.913505 0.121753 -5.253329 -0.182768 5.432039 14.110053 0.000000 0.000000 0.000000 3.927807 -0.803439 5.238966 -2.434274 0.020170 -4.112760 -3.170057 -11.185589 15.491729 0.000000 0.000000 0.000000 0.378349 -0.248051 5.466869 2.401527 0.272422 -28.879015 -1.865648 -0.646799 30.597297 1.552138 -0.279027 -12.314646 0.000000 0.000000 0.000000 11.336710 6.897320 -1.393653 -1.315471 -8.540541 -0.685087 1.851738 -6.591041 0.100372 0.000000 0.000000 0.000000 -17.191792 -7.771524 -1.640146 3.383776 5.990777 -0.728476 -0.666214 9.674476 0.227341 0.000000 0.000000 0.000000 
